<svg width="800px" height="800px" viewBox="-2.4 -2.4 28.80 28.80" fill="none" xmlns="http://www.w3.org/2000/svg">

<g id="SVGRepo_bgCarrier" stroke-width="0" transform="translate(0,0), scale(1)">

<path transform="translate(-2.4, -2.4), scale(0.8999999999999999)" d="M16,30.583771367867786C19.984480160734122,30.69074991920482,24.323595179439675,29.940581928030564,26.89517454527725,26.89517454527725C29.3515352005294,23.98621557104267,28.477159044408268,19.80386146961881,28.31471550837159,16C28.162929034937346,12.445689794788235,28.502706874871425,8.528332168510453,26.002731489915647,5.9972685100843535C23.494095183864754,3.4574362282692968,19.561944087195762,3.2943254697340754,16,3.5321456864476204C12.712784296718915,3.7516231211857765,9.717955362182359,5.067617104787704,7.249373419966101,7.249373419966098C4.58543899536105,9.603784126254101,2.185557493804659,12.456804027689058,1.8930533155798912,15.999999999999998C1.579557472005515,19.797474678927124,3.025363332635234,23.58667148305925,5.674573347316219,26.325426652683774C8.365452447791945,29.10725935240273,12.131068204979886,30.479895152663648,16,30.583771367867786" fill="#1360fb" strokewidth="0"/>

</g>

<g id="SVGRepo_tracerCarrier" stroke-linecap="round" stroke-linejoin="round" stroke="#CCCCCC" stroke-width="0.24000000000000005"/>

<g id="SVGRepo_iconCarrier">
    <circle cx="18" cy="7" r="1" stroke="#ffffff" stroke-width="2" stroke-linecap="round"/>
    <path fill-rule="evenodd" clip-rule="evenodd" d="M12.2422 18H5.18601C4.2391 18 3.66524 16.9546 4.17362 16.1557L8.98761 8.59091C9.45915 7.84991 10.5408 7.84991 11.0124 8.5909L13.5814 12.6279L15.0015 10.4977C15.4765 9.78521 16.5235 9.78521 16.9985 10.4977L20.7562 16.1344C21.2879 16.9318 20.7162 18 19.7578 18H14.814H12.2422Z" fill="#ffffff" fill-opacity="0.4"/>
</g>

</svg>